<svg width="35" height="35" viewBox="0 0 35 35" fill="none" xmlns="http://www.w3.org/2000/svg">
<path d="M6.4551 29.7511L3.99854 2.1875H31.001L28.5412 29.7467L17.4834 32.8125L6.4551 29.7511Z" fill="#1572B6"/>
<path d="M17.5 30.4694L26.4359 27.992L28.5381 4.44141H17.5V30.4694Z" fill="#33A9DC"/>
<path d="M17.5 14.4275H21.9734L22.2819 10.9657H17.5V7.58496H25.9766L25.8956 8.49168L25.0655 17.8082H17.5V14.4275Z" fill="white"/>
<path d="M17.521 23.207L17.5057 23.2113L13.741 22.1941L13.5004 19.498H10.1064L10.58 24.806L17.5046 26.7288L17.521 26.7245V23.207Z" fill="#EBEBEB"/>
<path d="M21.6858 17.665L21.2789 22.1921L17.5088 23.2093V26.7268L24.4388 24.8061L24.4902 24.2352L25.0775 17.665H21.6858Z" fill="white"/>
<path d="M17.5119 7.58496V10.9657H9.34594L9.27813 10.2056L9.12391 8.49168L9.04297 7.58496H17.5119ZM17.4998 14.4275V17.8082H13.7822L13.7144 17.0481L13.5613 15.3342L13.4803 14.4275H17.4998Z" fill="#EBEBEB"/>
</svg>
