<svg width="30" height="35" viewBox="0 0 30 35" fill="none" xmlns="http://www.w3.org/2000/svg">
<g clip-path="url(#clip0_369_408)">
<path d="M7.50176 34.9997C11.6406 34.9997 14.9996 32.3863 14.9996 29.1663V23.333H7.50176C3.36295 23.333 0.00390625 25.9463 0.00390625 29.1663C0.00390625 32.3863 3.36295 34.9997 7.50176 34.9997Z" fill="#0ACF83"/>
<path d="M0.00390625 17.5003C0.00390625 14.2803 3.36295 11.667 7.50176 11.667H14.9996V23.3337H7.50176C3.36295 23.3337 0.00390625 20.7203 0.00390625 17.5003Z" fill="#A259FF"/>
<path d="M0.00390625 5.83333C0.00390625 2.61333 3.36295 0 7.50176 0H14.9996V11.6667H7.50176C3.36295 11.6667 0.00390625 9.05333 0.00390625 5.83333Z" fill="#F24E1E"/>
<path d="M15 0H22.4979C26.6367 0 29.9957 2.61333 29.9957 5.83333C29.9957 9.05333 26.6367 11.6667 22.4979 11.6667H15V0Z" fill="#FF7262"/>
<path d="M29.9957 17.5003C29.9957 20.7203 26.6367 23.3337 22.4979 23.3337C18.359 23.3337 15 20.7203 15 17.5003C15 14.2803 18.359 11.667 22.4979 11.667C26.6367 11.667 29.9957 14.2803 29.9957 17.5003Z" fill="#1ABCFE"/>
</g>
<defs>
<clipPath id="clip0_369_408">
<rect width="30" height="35" fill="white"/>
</clipPath>
</defs>
</svg>
