<svg width="36" height="35" viewBox="0 0 36 35" fill="none" xmlns="http://www.w3.org/2000/svg">
<path d="M17.7298 2.91699C15.8147 2.91699 13.9183 3.2942 12.149 4.02708C10.3797 4.75996 8.77203 5.83416 7.41784 7.18835C4.68294 9.92326 3.14648 13.6326 3.14648 17.5003C3.14648 23.9462 7.3319 29.4149 13.1215 31.3545C13.8507 31.4712 14.084 31.0191 14.084 30.6253V28.1607C10.0444 29.0357 9.18398 26.2066 9.18398 26.2066C8.51315 24.5149 7.56523 24.0628 7.56523 24.0628C6.23815 23.1587 7.66732 23.1878 7.66732 23.1878C9.12565 23.2899 9.89857 24.6899 9.89857 24.6899C11.1673 26.9066 13.3111 26.2503 14.1423 25.9003C14.2736 24.9524 14.6527 24.3107 15.0611 23.9462C11.8236 23.5816 8.42565 22.3274 8.42565 16.7712C8.42565 15.1524 8.97982 13.8545 9.92773 12.8191C9.7819 12.4545 9.27148 10.9378 10.0736 8.96908C10.0736 8.96908 11.2986 8.57533 14.084 10.4566C15.2361 10.1357 16.4902 9.97533 17.7298 9.97533C18.9694 9.97533 20.2236 10.1357 21.3757 10.4566C24.1611 8.57533 25.3861 8.96908 25.3861 8.96908C26.1882 10.9378 25.6777 12.4545 25.5319 12.8191C26.4798 13.8545 27.034 15.1524 27.034 16.7712C27.034 22.342 23.6215 23.567 20.3694 23.9316C20.8944 24.3837 21.3757 25.2732 21.3757 26.6295V30.6253C21.3757 31.0191 21.609 31.4857 22.3527 31.3545C28.1423 29.4003 32.3132 23.9462 32.3132 17.5003C32.3132 15.5852 31.9359 13.6889 31.2031 11.9195C30.4702 10.1502 29.396 8.54254 28.0418 7.18835C26.6876 5.83416 25.08 4.75996 23.3106 4.02708C21.5413 3.2942 19.6449 2.91699 17.7298 2.91699Z" fill="black"/>
</svg>
