<svg width="35" height="35" viewBox="0 0 35 35" fill="none" xmlns="http://www.w3.org/2000/svg">
<path d="M6.45521 29.7511L3.99756 2.1875H31.0022L28.5413 29.7467L17.4835 32.8125L6.45521 29.7511Z" fill="#E44F26"/>
<path d="M17.5 30.4694L26.4359 27.992L28.5381 4.44141H17.5V30.4694Z" fill="#F1662A"/>
<path d="M17.5 14.6638H13.0266L12.7181 11.2021H17.5V7.82129H9.02344L9.10438 8.7291L9.93453 18.0446H17.5V14.6638ZM17.5 23.4433L17.4847 23.4477L13.72 22.4316L13.4794 19.7355H10.0855L10.5591 25.0424L17.4847 26.9652L17.5 26.9608V23.4433Z" fill="#EBEBEB"/>
<path d="M17.4878 14.6638V18.0446H21.6506L21.259 22.4294L17.4878 23.4466V26.9641L24.4189 25.0424L24.4692 24.4714L25.2633 15.5716L25.3464 14.6638H17.4878ZM17.4878 7.82129V11.2021H25.6537L25.7215 10.443L25.8758 8.7291L25.9567 7.82129H17.4878Z" fill="white"/>
</svg>
