<svg width="31" height="30" viewBox="0 0 31 30" fill="none" xmlns="http://www.w3.org/2000/svg">
<g clip-path="url(#clip0_370_441)">
<path d="M23.7344 0H7.26562C3.25293 0 0 3.148 0 7.03125V22.9688C0 26.852 3.25293 30 7.26562 30H23.7344C27.7471 30 31 26.852 31 22.9688V7.03125C31 3.148 27.7471 0 23.7344 0Z" fill="#F0DB4F"/>
<path d="M8.15149 25.0698L10.5237 23.6804C10.9814 24.4657 11.3978 25.1302 12.3964 25.1302C13.3537 25.1302 13.9572 24.7678 13.9572 23.3583V13.7726H16.8705V23.3981C16.8705 26.3181 15.1018 27.6472 12.5213 27.6472C10.1908 27.6472 8.83809 26.4792 8.15137 25.0696M18.4528 24.7677L20.8248 23.4387C21.4493 24.4255 22.2608 25.1504 23.6965 25.1504C24.9037 25.1504 25.6734 24.5664 25.6734 23.7608C25.6734 22.7943 24.8826 22.4518 23.5509 21.8882L22.8227 21.5859C20.7209 20.7202 19.3266 19.6327 19.3266 17.337C19.3266 15.2224 20.9914 13.6113 23.5926 13.6113C25.4446 13.6113 26.7764 14.2357 27.7336 15.8668L25.4654 17.2765C24.9658 16.4106 24.425 16.0683 23.5926 16.0683C22.7394 16.0683 22.1984 16.5919 22.1984 17.2765C22.1984 18.1222 22.7394 18.4646 23.9879 18.9884L24.7161 19.2904C27.1924 20.3175 28.5867 21.3645 28.5867 23.7205C28.5867 26.2581 26.5266 27.6475 23.759 27.6475C21.0539 27.6475 19.3059 26.3989 18.4528 24.7677Z" fill="#323330"/>
</g>
<defs>
<clipPath id="clip0_370_441">
<rect width="31" height="30" fill="white"/>
</clipPath>
</defs>
</svg>
