<svg width="40" height="35" viewBox="0 0 40 35" fill="none" xmlns="http://www.w3.org/2000/svg">
<g clip-path="url(#clip0_369_396)">
<path d="M32.312 11.3326C31.8937 11.1891 31.472 11.0562 31.047 10.9339C31.1184 10.6423 31.1841 10.3541 31.2425 10.0711C32.2001 5.42267 31.574 1.67782 29.4358 0.444842C27.3857 -0.737176 24.0329 0.495346 20.6468 3.44225C20.3131 3.7332 19.9868 4.03254 19.6682 4.33997C19.4549 4.13554 19.2379 3.93507 19.0172 3.73868C15.4684 0.587758 11.9113 -0.740246 9.77534 0.496267C7.72707 1.68197 7.12056 5.20239 7.98266 9.60778C8.06843 10.0441 8.16528 10.4781 8.2731 10.9095C7.76959 11.0526 7.28374 11.2049 6.81876 11.367C2.65806 12.8176 0.000976562 15.091 0.000976562 17.449C0.000976562 19.8844 2.85348 22.3272 7.18703 23.8084C7.53836 23.928 7.89261 24.0388 8.24946 24.1408C8.13357 24.6054 8.03068 25.0732 7.94091 25.5435C7.11902 29.8725 7.76084 33.3097 9.80359 34.4879C11.9134 35.7046 15.4546 34.4541 18.9025 31.44C19.1821 31.1949 19.4555 30.9429 19.7226 30.6842C20.0676 31.0171 20.4218 31.3403 20.7848 31.6535C24.1249 34.5275 27.4235 35.688 29.4642 34.5066C31.5721 33.2864 32.2572 29.5939 31.3677 25.1014C31.2977 24.7495 31.2191 24.3993 31.1321 24.0511C31.3808 23.9774 31.6249 23.9016 31.8628 23.8227C36.368 22.3301 39.2992 19.917 39.2992 17.449C39.2992 15.0824 36.5563 12.7937 32.312 11.3326ZM31.3349 22.2293C31.12 22.3003 30.8995 22.369 30.6748 22.4357C30.1774 20.8612 29.5063 19.187 28.6849 17.4571C29.4687 15.7685 30.114 14.1157 30.5974 12.5515C30.9995 12.6678 31.3895 12.7905 31.7656 12.9199C35.4022 14.1719 37.6204 16.0228 37.6204 17.449C37.6204 18.9681 35.2248 20.9403 31.3349 22.2293ZM29.7209 25.4275C30.1142 27.4139 30.1702 29.2099 29.9097 30.6141C29.6758 31.8758 29.2051 32.7168 28.623 33.0538C27.3846 33.7707 24.7362 32.8389 21.8798 30.3809C21.5421 30.0897 21.2126 29.7893 20.8917 29.4798C21.9991 28.2688 23.1057 26.8609 24.1858 25.2973C26.0856 25.1287 27.8805 24.853 29.5081 24.4768C29.5865 24.792 29.6575 25.1089 29.7209 25.4275ZM13.3986 32.9299C12.1887 33.3571 11.2249 33.3694 10.6424 33.0335C9.40277 32.3186 8.88745 29.5587 9.59036 25.8567C9.67392 25.4192 9.76959 24.9842 9.87727 24.552C11.487 24.9082 13.2687 25.1642 15.173 25.3186C16.2605 26.8487 17.399 28.255 18.5465 29.4864C18.3027 29.7224 18.053 29.9523 17.7979 30.176C16.2731 31.5087 14.7452 32.4543 13.3986 32.9299ZM7.73014 22.2199C5.81389 21.5649 4.23137 20.7137 3.14668 19.7848C2.1719 18.9502 1.6799 18.1214 1.6799 17.449C1.6799 16.018 3.81321 14.1928 7.37139 12.9523C7.80321 12.8018 8.25514 12.6598 8.72411 12.5266C9.21595 14.1262 9.861 15.7986 10.6394 17.4898C9.85087 19.2061 9.19661 20.9053 8.70001 22.5237C8.37428 22.4304 8.05089 22.3291 7.73014 22.2199ZM9.63027 9.28526C8.89174 5.51094 9.3822 2.66381 10.6166 1.94923C11.9312 1.18813 14.8384 2.27328 17.9026 4.99407C18.1024 5.1719 18.2989 5.35332 18.4922 5.53826C17.3504 6.76434 16.2222 8.16019 15.1445 9.68116C13.2962 9.85247 11.527 10.1276 9.90045 10.4961C9.80023 10.0949 9.71015 9.69104 9.63027 9.28526ZM26.5818 13.4711C26.1976 12.8075 25.7991 12.1522 25.3867 11.5058C26.6406 11.6643 27.8419 11.8748 28.9701 12.1321C28.6314 13.2177 28.2093 14.3526 27.7124 15.5162C27.3492 14.827 26.9722 14.1452 26.5818 13.4711ZM19.669 6.73809C20.4433 7.57701 21.2188 8.51357 21.9816 9.5298C20.4342 9.45672 18.8843 9.45641 17.3369 9.52888C18.1004 8.52201 18.8826 7.58668 19.669 6.73809ZM12.7118 13.4826C12.3262 14.1513 11.9563 14.8289 11.6024 15.5148C11.1136 14.3553 10.6953 13.2152 10.3538 12.1143C11.475 11.8634 12.6707 11.6583 13.9165 11.5027C13.4995 12.1531 13.0978 12.8134 12.7118 13.4826ZM13.9523 23.5148C12.6651 23.3711 11.4515 23.1766 10.3306 22.9325C10.6775 21.8119 11.105 20.6475 11.6044 19.4632C11.9597 20.1496 12.3312 20.8276 12.7184 21.4966C13.1166 22.1843 13.5289 22.8579 13.9523 23.5148ZM19.7153 28.2781C18.9196 27.4197 18.1259 26.47 17.3508 25.4485C18.1033 25.478 18.8704 25.493 19.6501 25.493C20.4511 25.493 21.2429 25.4751 22.0223 25.4404C21.257 26.4802 20.4844 27.4314 19.7153 28.2781ZM27.7282 19.4027C28.2535 20.6001 28.6962 21.7583 29.0478 22.8597C27.9084 23.1198 26.6782 23.3292 25.382 23.4847C25.7973 22.8262 26.1995 22.1595 26.5884 21.4851C26.9837 20.7995 27.3638 20.1052 27.7282 19.4027ZM25.1342 20.6463C24.5389 21.6804 23.9102 22.6948 23.249 23.6881C22.0512 23.7729 20.8508 23.815 19.6501 23.8144C18.4271 23.8144 17.2376 23.7763 16.0921 23.702C15.4136 22.7111 14.7729 21.6949 14.1712 20.6555C13.5724 19.6216 13.0132 18.5654 12.4946 17.4891C13.0119 16.4125 13.5695 15.3558 14.1663 14.3211L14.1662 14.3213C14.7627 13.2863 15.3983 12.2745 16.0717 11.2878C17.2403 11.1994 18.4388 11.1533 19.6499 11.1533C20.8667 11.1533 22.0668 11.1998 23.2351 11.2889C23.9017 12.2741 24.5333 13.2825 25.1287 14.3122C25.7274 15.3446 26.2924 16.3962 26.8228 17.4653C26.2979 18.5453 25.7347 19.6063 25.1342 20.6463ZM28.5974 1.89918C29.9132 2.65813 30.425 5.71863 29.5982 9.73212C29.5454 9.98817 29.4862 10.249 29.4217 10.5135C27.7911 10.1371 26.0207 9.85723 24.1671 9.68331C23.0873 8.14561 21.9684 6.7476 20.8452 5.53734C21.1395 5.25358 21.4409 4.97718 21.749 4.70839C24.6503 2.18364 27.3619 1.18675 28.5974 1.89918ZM19.6501 13.9398C21.5881 13.9398 23.1593 15.511 23.1593 17.449C23.1593 19.3871 21.5881 20.9582 19.6501 20.9582C17.7121 20.9582 16.1409 19.3871 16.1409 17.449C16.1409 15.511 17.7121 13.9398 19.6501 13.9398Z" fill="#00D8FF"/>
</g>
<defs>
<clipPath id="clip0_369_396">
<rect width="39.3" height="35" fill="white"/>
</clipPath>
</defs>
</svg>
