<svg width="33" height="33" viewBox="0 0 33 33" fill="none" xmlns="http://www.w3.org/2000/svg">
<g clip-path="url(#clip0_370_441)">
<path d="M25.2656 0H7.73438C3.4628 0 0 3.4628 0 7.73438V25.2656C0 29.5372 3.4628 33 7.73438 33H25.2656C29.5372 33 33 29.5372 33 25.2656V7.73438C33 3.4628 29.5372 0 25.2656 0Z" fill="#F0DB4F"/>
<path d="M8.67689 27.577L11.2022 26.0487C11.6894 26.9125 12.1326 27.6434 13.1957 27.6434C14.2147 27.6434 14.8572 27.2448 14.8572 25.6943V15.15H17.9584V25.7381C17.9584 28.9501 16.0756 30.4121 13.3286 30.4121C10.8478 30.4121 9.40779 29.1273 8.67676 27.5767M19.6428 27.2447L22.1678 25.7827C22.8326 26.8683 23.6965 27.6657 25.2248 27.6657C26.5099 27.6657 27.3292 27.0232 27.3292 26.1371C27.3292 25.0739 26.4875 24.6972 25.0698 24.0772L24.2947 23.7447C22.0572 22.7924 20.573 21.5961 20.573 19.0708C20.573 16.7449 22.3452 14.9727 25.1142 14.9727C27.0857 14.9727 28.5034 15.6595 29.5223 17.4537L27.1078 19.0043C26.576 18.0518 26.0003 17.6753 25.1142 17.6753C24.206 17.6753 23.63 18.2513 23.63 19.0043C23.63 19.9346 24.206 20.3113 25.535 20.8874L26.3102 21.2196C28.9462 22.3494 30.4305 23.5011 30.4305 26.0928C30.4305 28.8841 28.2375 30.4124 25.2914 30.4124C22.4117 30.4124 20.551 29.039 19.6428 27.2447Z" fill="#323330"/>
</g>
<defs>
<clipPath id="clip0_370_441">
<rect width="33" height="33" fill="white"/>
</clipPath>
</defs>
</svg>
