<svg width="35" height="35" viewBox="0 0 35 35" fill="none" xmlns="http://www.w3.org/2000/svg">
<path d="M31.7295 5.5017L25.4229 2.46545C25.0667 2.29373 24.666 2.23706 24.2762 2.3033C23.8864 2.36954 23.5269 2.55541 23.2474 2.83513L2.6029 21.6564C2.35242 21.8837 2.20248 22.2011 2.18607 22.539C2.16966 22.8768 2.28812 23.2073 2.5154 23.4578C2.54274 23.4873 2.57008 23.5158 2.59962 23.542L4.28508 25.0733C4.50533 25.2737 4.78882 25.3907 5.08633 25.4039C5.38384 25.4171 5.67657 25.3256 5.91368 25.1454L30.7801 6.2892C30.9679 6.14667 31.1918 6.0594 31.4265 6.03721C31.6612 6.01503 31.8975 6.0588 32.1087 6.1636C32.3199 6.26841 32.4977 6.43009 32.622 6.63044C32.7463 6.83079 32.8122 7.06186 32.8123 7.29763V7.22435C32.8123 6.8644 32.7106 6.51177 32.5191 6.20702C32.3275 5.90227 32.0538 5.65779 31.7295 5.5017Z" fill="#0065A9"/>
<path d="M31.7295 29.4985L25.4229 32.5359C25.0666 32.7071 24.666 32.7635 24.2763 32.6973C23.8866 32.6311 23.5271 32.4455 23.2474 32.1662L2.6029 13.3438C2.35242 13.1166 2.20248 12.7991 2.18607 12.4613C2.16966 12.1234 2.28812 11.7929 2.5154 11.5424C2.54274 11.5129 2.57008 11.4845 2.59962 11.4582L4.28508 9.92697C4.50555 9.72568 4.78969 9.60819 5.08793 9.595C5.38618 9.5818 5.67958 9.67375 5.91696 9.85478L30.7801 28.711C30.9679 28.8536 31.1918 28.9408 31.4265 28.963C31.6612 28.9852 31.8975 28.9414 32.1087 28.8366C32.3199 28.7318 32.4977 28.5701 32.622 28.3698C32.7463 28.1694 32.8122 27.9384 32.8123 27.7026V27.7813C32.8111 28.1403 32.7089 28.4918 32.5174 28.7954C32.326 29.0991 32.0529 29.3427 31.7295 29.4985Z" fill="#007ACC"/>
<path d="M25.423 32.5362C25.0668 32.7074 24.6661 32.7638 24.2764 32.6976C23.8867 32.6314 23.5272 32.4458 23.2475 32.1665C23.4046 32.3215 23.6039 32.4267 23.8205 32.469C24.0371 32.5112 24.2614 32.4886 24.4652 32.4039C24.669 32.3192 24.8433 32.1763 24.9662 31.993C25.0891 31.8097 25.1552 31.5942 25.1561 31.3735V3.62729C25.1563 3.40557 25.0907 3.18879 24.9676 3.00441C24.8444 2.82002 24.6694 2.67632 24.4645 2.59152C24.2597 2.50672 24.0342 2.48463 23.8168 2.52805C23.5994 2.57147 23.3997 2.67844 23.2432 2.83542C23.5226 2.55579 23.8821 2.36991 24.2718 2.30348C24.6616 2.23706 25.0623 2.29337 25.4186 2.46463L31.7241 5.49651C32.0495 5.65182 32.3243 5.89597 32.5169 6.20078C32.7094 6.50558 32.8119 6.85863 32.8124 7.21917V27.7817C32.8125 28.1419 32.7108 28.4949 32.519 28.7998C32.3272 29.1048 32.0532 29.3494 31.7285 29.5054L25.423 32.5362Z" fill="#1F9CF0"/>
</svg>
